<svg width="44" height="42" viewBox="0 0 44 42" fill="none" xmlns="http://www.w3.org/2000/svg">
<path d="M7.33337 33.25V29.75H11V17.5C11 15.0792 11.7639 12.9354 13.2917 11.0687C14.8195 9.17292 16.8056 7.93333 19.25 7.35V6.125C19.25 5.39583 19.5098 4.78333 20.0292 4.2875C20.5792 3.7625 21.2362 3.5 22 3.5C22.7639 3.5 23.4056 3.7625 23.925 4.2875C24.475 4.78333 24.75 5.39583 24.75 6.125V7.35C27.1945 7.93333 29.1806 9.17292 30.7084 11.0687C32.2362 12.9354 33 15.0792 33 17.5V29.75H36.6667V33.25H7.33337ZM22 38.5C20.9917 38.5 20.1209 38.1646 19.3875 37.4937C18.6848 36.7937 18.3334 35.9625 18.3334 35H25.6667C25.6667 35.9625 25.3 36.7937 24.5667 37.4937C23.8639 38.1646 23.0084 38.5 22 38.5ZM14.6667 29.75H29.3334V17.5C29.3334 15.575 28.6153 13.9271 27.1792 12.5562C25.7431 11.1854 24.0167 10.5 22 10.5C19.9834 10.5 18.257 11.1854 16.8209 12.5562C15.3848 13.9271 14.6667 15.575 14.6667 17.5V29.75Z" fill="#1D1B20"/>
</svg>