<svg width="90" height="91" viewBox="0 0 90 91" fill="none" xmlns="http://www.w3.org/2000/svg">
<path d="M12.225 63.5752C12.225 70.368 17.6648 75.8751 24.375 75.8751C24.375 81.5359 28.9081 86.125 34.5 86.125C40.0918 86.125 44.625 81.5359 44.625 75.8751C44.625 81.5359 49.1582 86.1246 54.75 86.1246C60.3418 86.1246 64.875 81.5355 64.875 75.8747C71.5854 75.8747 77.025 70.3676 77.025 63.5747C77.025 61.2431 76.3843 59.0631 75.2714 57.2054C80.8834 56.1185 85.125 51.1231 85.125 45.1249C85.125 39.1262 80.8834 34.1308 75.2714 33.0441C76.3843 31.1863 77.025 29.0063 77.025 26.6748C77.025 19.8818 71.5854 14.3749 64.875 14.3749C64.875 8.71402 60.3418 4.125 54.75 4.125C49.1582 4.125 44.625 8.71442 44.625 14.3753C44.625 8.71442 40.0918 4.12537 34.5 4.12537C28.9081 4.12537 24.375 8.71442 24.375 14.3753C17.6648 14.3753 12.225 19.8822 12.225 26.6752C12.225 29.0067 12.8658 31.1867 13.9788 33.0445C8.36644 34.1312 4.125 39.1266 4.125 45.1253C4.125 51.1235 8.36644 56.119 13.9788 57.2059C12.8658 59.0635 12.225 61.2435 12.225 63.5752Z" stroke="#C10E20" stroke-width="8.25" stroke-linecap="round" stroke-linejoin="round"/>
</svg>
