<svg width="54" height="54" viewBox="0 0 54 54" fill="none" xmlns="http://www.w3.org/2000/svg">
<rect x="2" y="35.07" width="30.5702" height="10.767" rx="5.38348" fill="#F6F6F6" stroke="#3C3C3C" stroke-width="4"/>
<rect x="7.55859" y="2" width="30.5702" height="10.767" rx="5.38348" stroke="#3C3C3C" stroke-width="4"/>
<rect x="2" y="12.7669" width="30.5702" height="10.767" rx="5.38348" stroke="#3C3C3C" stroke-width="4"/>
<rect x="6.16797" y="23.5339" width="30.5702" height="10.767" rx="5.38348" stroke="#3C3C3C" stroke-width="4"/>
<ellipse cx="35.6847" cy="33.9216" rx="16.3155" ry="18.0784" fill="white" stroke="#C10E20" stroke-width="4"/>
<path d="M35.7701 45.7737C35.3578 45.7737 35.0094 45.6128 34.725 45.2909C34.4407 44.969 34.2985 44.5666 34.2985 44.0837V42.2971L34.9383 42.9489C33.9857 42.9007 33.1609 42.7638 32.4642 42.5385C31.7675 42.3132 31.1987 42.0878 30.7579 41.8625C30.3882 41.6693 30.1252 41.3957 29.9688 41.0416C29.8266 40.6875 29.7697 40.3253 29.7981 39.9551C29.8408 39.5849 29.9616 39.2469 30.1607 38.9411C30.3598 38.6353 30.6157 38.4341 30.9285 38.3375C31.2556 38.2248 31.6324 38.2731 32.059 38.4824C32.3433 38.6594 32.7699 38.8445 33.3387 39.0377C33.9217 39.2147 34.6397 39.3033 35.4929 39.3033C36.0901 39.3033 36.5593 39.2389 36.9006 39.1101C37.256 38.9813 37.5049 38.8123 37.6471 38.6031C37.8035 38.3778 37.8817 38.1363 37.8817 37.8788C37.8817 37.6373 37.8248 37.4362 37.7111 37.2752C37.6115 37.0981 37.4409 36.9452 37.1992 36.8165C36.9574 36.6716 36.6233 36.5428 36.1967 36.4302L33.7866 35.8507C32.4642 35.5127 31.476 34.9494 30.8219 34.1607C30.182 33.3559 29.8621 32.3177 29.8621 31.0461C29.8621 30.0804 30.0683 29.2193 30.4806 28.4628C30.9072 27.6902 31.4973 27.0625 32.2509 26.5796C33.0188 26.0967 33.9146 25.7909 34.9383 25.6621L34.2985 26.0726V24.4549C34.2985 23.9721 34.4407 23.5697 34.725 23.2478C35.0094 22.9259 35.3578 22.7649 35.7701 22.7649C36.1967 22.7649 36.5522 22.9259 36.8366 23.2478C37.121 23.5697 37.2632 23.9721 37.2632 24.4549V26.0726L36.6233 25.6138C37.1636 25.6299 37.7466 25.7346 38.3722 25.9277C38.9979 26.1048 39.5453 26.3542 40.0145 26.6762C40.3416 26.8693 40.5691 27.1349 40.6971 27.4729C40.8393 27.8109 40.889 28.157 40.8464 28.5111C40.8179 28.8491 40.7042 29.1549 40.5051 29.4285C40.3203 29.7022 40.0643 29.8873 39.7373 29.9838C39.4245 30.0643 39.0477 29.9999 38.6069 29.7907C38.2798 29.6297 37.9101 29.501 37.4978 29.4044C37.0996 29.2917 36.5877 29.2354 35.9621 29.2354C35.2085 29.2354 34.6255 29.3883 34.2132 29.6941C33.815 29.9999 33.616 30.3943 33.616 30.8771C33.616 31.1991 33.7297 31.4727 33.9572 31.698C34.1989 31.9073 34.6326 32.0924 35.2583 32.2533L37.6897 32.8569C39.0405 33.1949 40.0359 33.7583 40.6757 34.547C41.3298 35.3196 41.6569 36.3255 41.6569 37.5649C41.6569 38.5307 41.4507 39.3837 41.0383 40.1241C40.626 40.8645 40.0501 41.4681 39.3107 41.9349C38.5855 42.4017 37.7395 42.7075 36.7726 42.8524L37.2632 42.2729V44.0837C37.2632 44.5666 37.121 44.969 36.8366 45.2909C36.5664 45.6128 36.2109 45.7737 35.7701 45.7737Z" fill="#3C3C3C"/>
</svg>
