<svg width="39" height="52" viewBox="0 0 39 52" fill="none" xmlns="http://www.w3.org/2000/svg">
<path fill-rule="evenodd" clip-rule="evenodd" d="M10.4302 26C10.4302 19.3212 14.4909 13.907 19.5 13.907C21.9055 13.907 24.2124 15.1811 25.9133 17.4489C27.6142 19.7168 28.5698 22.7927 28.5698 26C28.5698 32.6788 24.5091 38.093 19.5 38.093C14.4909 38.093 10.4302 32.6788 10.4302 26ZM13.6344 29.2395C14.6171 32.4027 16.9321 34.4651 19.5 34.4651C23.0064 34.4651 25.8488 30.6752 25.8488 26C25.8488 22.5762 24.302 19.4895 21.9296 18.1793C19.5572 16.869 16.8264 17.5933 15.0107 20.0143C13.1949 22.4353 12.6518 26.0763 13.6344 29.2395Z" fill="black"/>
<path d="M19.5 10.8837C20.2473 10.8707 20.8507 10.0661 20.8605 9.06977V1.81395C20.8605 0.812135 20.2514 0 19.5 0C18.7486 0 18.1395 0.812135 18.1395 1.81395V9.06977C18.1493 10.0661 18.7527 10.8707 19.5 10.8837Z" fill="black"/>
<path d="M19.5 41.1163C18.7527 41.1293 18.1493 41.9339 18.1395 42.9302V50.186C18.1395 51.1879 18.7486 52 19.5 52C20.2514 52 20.8605 51.1879 20.8605 50.186V42.9302C20.8507 41.9339 20.2473 41.1293 19.5 41.1163Z" fill="black"/>
<path d="M9.55953 15.3098C10.0907 16.0171 10.9512 16.0171 11.4823 15.3098C12.0128 14.6016 12.0128 13.4543 11.4823 12.746L7.63674 7.61861C7.29759 7.1333 6.78681 6.93354 6.30478 7.09767C5.82275 7.26181 5.44635 7.76367 5.32325 8.40637C5.20015 9.04908 5.34998 9.73012 5.71395 10.1823L9.55953 15.3098Z" fill="black"/>
<path d="M29.4405 36.6902C28.9044 36.0243 28.0691 36.0439 27.551 36.7347C27.0329 37.4255 27.0182 38.5392 27.5177 39.254L31.3633 44.3814C31.617 44.724 31.9636 44.9158 32.3246 44.9135C32.6862 44.9186 33.0335 44.7263 33.286 44.3814C33.8165 43.6732 33.8165 42.5259 33.286 41.8177L29.4405 36.6902Z" fill="black"/>
<path d="M8.16279 26C8.15302 25.0036 7.54961 24.1991 6.80233 24.186H1.36046C0.609101 24.186 0 24.9982 0 26C0 27.0018 0.609101 27.814 1.36046 27.814H6.80233C7.54961 27.8009 8.15302 26.9964 8.16279 26Z" fill="black"/>
<path d="M37.6395 24.186H32.1977C31.4463 24.186 30.8372 24.9982 30.8372 26C30.8372 27.0018 31.4463 27.814 32.1977 27.814H37.6395C38.3909 27.814 39 27.0018 39 26C39 24.9982 38.3909 24.186 37.6395 24.186Z" fill="black"/>
<path d="M9.55953 36.6902L5.71395 41.8177C5.18345 42.5259 5.18345 43.6732 5.71395 44.3814C5.9665 44.7263 6.31384 44.9186 6.67535 44.9135C7.03644 44.9158 7.383 44.724 7.63674 44.3814L11.4823 39.254C11.9818 38.5392 11.9671 37.4255 11.449 36.7347C10.9309 36.0439 10.0956 36.0243 9.55953 36.6902Z" fill="black"/>
<path d="M28.5698 15.8419C28.9309 15.8441 29.2774 15.6523 29.5312 15.3098L33.286 10.1823C33.65 9.73012 33.7998 9.04908 33.6767 8.40637C33.5536 7.76367 33.1772 7.26181 32.6952 7.09767C32.2132 6.93354 31.7024 7.1333 31.3633 7.61861L27.5177 12.746C26.9872 13.4543 26.9872 14.6016 27.5177 15.3098C27.793 15.684 28.1775 15.8785 28.5698 15.8419Z" fill="black"/>
</svg>